<svg width="128" height="86" viewBox="0 0 128 86" fill="none" xmlns="http://www.w3.org/2000/svg">
<path fill-rule="evenodd" clip-rule="evenodd" d="M91.863 33.186C88.0881 33.7226 84.9147 35.0363 81.8574 37.3276C79.7431 38.9124 76.8063 41.9127 76.8063 42.4879C76.8063 43.0438 75.4783 43.7746 74.9948 43.4845C74.8007 43.3679 74.6416 43.0368 74.6416 42.7485C74.6416 41.7183 73.2259 39.2655 71.9783 38.135C71.2802 37.5024 69.9305 36.6501 68.9791 36.2417C64.9841 34.5255 64.2705 34.4464 50.9196 34.2337C43.9246 34.122 38.2015 34.1384 38.2018 34.2702C38.2022 34.5718 39.0006 34.7865 41.2014 35.0773C42.339 35.2275 43.3131 35.6318 44.0242 36.249C45.9443 37.9143 46.1294 39.7548 46.1016 56.8863C46.0865 66.1227 45.9418 72.1157 45.7314 72.2422C45.1813 72.5722 44.4059 71.7392 43.9679 70.3467C43.7457 69.6398 43.4249 68.7458 43.2554 68.3605C43.0858 67.9752 41.8631 64.8224 40.5387 61.3544C39.2142 57.8865 37.919 54.5761 37.661 53.9981C37.4027 53.4201 36.9474 52.2378 36.6487 51.3708C36.3499 50.5038 35.908 49.3216 35.6659 48.7436C35.172 47.5631 35.2095 47.6576 33.2266 42.6133C32.4311 40.5903 31.4133 37.9105 30.9645 36.6582C30.5153 35.4058 30.0369 34.2558 29.9012 34.1024C29.7652 33.9489 29.399 34.5007 29.0877 35.3284C27.2466 40.2183 24.7492 46.7416 24.4883 47.3424C24.3209 47.7277 23.2624 50.4863 22.1364 53.4727C15.1544 71.9854 13.926 75.0954 12.1725 78.6944C10.2272 82.6868 9.26281 83.8655 7.7089 84.1486C7.018 84.2743 6.453 84.5567 6.45264 84.776C6.45264 85.0615 8.16025 85.1533 12.454 85.099C19.3143 85.0121 20.0839 84.8418 16.7946 84.1391C13.9635 83.5342 13.2996 80.8309 14.9557 76.6525C16.5081 72.734 16.989 71.5433 17.3123 70.8126C17.483 70.4273 17.7842 69.6783 17.9819 69.1487L18.3409 68.1853H39.2662L39.8615 69.3035C40.1891 69.9183 40.5834 70.8245 40.7382 71.3177C40.8926 71.8106 41.5211 73.5537 42.1344 75.1914C43.5848 79.064 43.6807 82.0359 42.3927 83.2105C41.8775 83.6802 40.8273 84.0932 39.777 84.2393C35.6103 84.818 39.0544 85.0471 51.4059 85.0128C65.4257 84.9735 66.9807 84.8278 70.4713 83.2259C72.1706 82.4461 74.231 80.6747 75.9938 78.4786L76.8045 77.4683L77.9349 78.7967C83.8514 85.7491 95.5874 88.0478 104.587 84.0169C107.36 82.7747 111.207 79.9723 112.522 78.2365C114.203 76.0174 113.173 76.2682 110.407 78.7518C107.7 81.1822 105.812 82.2934 102.783 83.241C96.5709 85.1841 90.1749 84.115 85.1827 80.2988C80.885 77.0136 78.1687 72.5991 76.7594 66.609C76.0656 63.6594 76.1493 54.8017 76.9052 51.1544C77.9998 45.8743 80.3926 41.1645 83.1991 38.7656C88.305 34.4019 96.8588 33.0227 102.591 35.6388C106.146 37.2614 109.38 41.4184 111.082 46.5542C112.363 50.4212 112.666 49.6235 112.4 43.0827C112.27 39.8729 112.163 36.2473 112.163 35.0258C112.163 33.3089 112.044 32.8048 111.635 32.8048C111.344 32.8048 110.939 33.1078 110.735 33.4781C109.608 35.5235 108.469 35.6798 104.098 34.3896C99.187 32.9397 95.8818 32.6146 91.863 33.186ZM61.7471 36.1562C66.2432 37.2877 68.7803 39.0693 70.3699 42.2129C71.0377 43.5328 71.1947 44.4335 71.2033 46.9921C71.2156 50.5231 70.7047 51.9867 68.8236 53.8131C66.3796 56.1861 63.8927 56.7066 55.7003 56.5599L49.567 56.4502L49.4674 46.6418C49.3458 34.6639 48.8526 35.6073 55.2371 35.6073C57.9978 35.6073 60.3548 35.8062 61.7471 36.1562ZM30.0369 41.65C30.5377 42.9976 32.3149 48.002 33.7382 52.0714C34.0416 52.9384 34.4295 53.9631 34.6005 54.3484C35.5861 56.5686 38.5558 65.8117 38.375 66.0958C38.2455 66.299 34.423 66.4338 28.7893 66.4338C18.1187 66.4338 18.5253 66.5638 19.7332 63.5396C20.1362 62.5304 21.1435 59.8919 21.9719 57.6763C22.8002 55.4606 24.1268 51.9138 24.9199 49.7945C26.6798 45.0906 28.115 41.1869 28.3004 40.5991C28.5927 39.6722 29.5076 40.226 30.0369 41.65ZM71.9126 55.5384C72.0227 55.7114 72.0079 56.8289 71.8794 58.022C71.6175 60.4538 71.1377 60.8889 69.6408 60.051C69.1169 59.7578 68.0962 59.4148 67.3718 59.2887C65.9524 59.0411 65.1508 58.3947 65.5523 57.8217C65.6898 57.6255 66.6141 57.1732 67.6063 56.8166C68.5985 56.46 69.7306 55.9559 70.1221 55.6964C70.9454 55.1499 71.6273 55.0896 71.9126 55.5384ZM62.3233 59.5896C65.0967 60.3 68.4653 62.2421 70.0272 64.0315C74.0019 68.5847 73.7696 76.0594 69.5311 79.9838C66.6776 82.6262 62.5387 83.7237 56.1095 83.5429L51.8551 83.4235L49.3866 80.8064V70.1873C49.3866 62.1693 49.497 59.4558 49.8376 59.1108C50.4119 58.5286 59.5492 58.8792 62.3233 59.5896Z" fill="#AC5914"/>
<path fill-rule="evenodd" clip-rule="evenodd" d="M56.3527 8.44208C44.8714 9.66684 34.7861 13.0973 25.5964 18.9038C21.9306 21.22 15.4256 26.9428 12.66 30.284C6.84162 37.3135 2.15137 48.2199 2.35815 54.2392L2.39881 55.4297L2.67474 54.2392C2.82627 53.5844 3.26172 52.1781 3.64192 51.114C4.02212 50.05 4.52152 48.6437 4.75193 47.9889C6.64561 42.6009 10.9289 36.0611 15.6261 31.3865C23.4035 23.646 32.6203 18.338 43.6679 15.2373C46.6142 14.4105 47.3208 14.239 49.7496 13.7622C63.2022 11.1217 78.4635 12.5065 90.8384 17.491C98.2883 20.4917 103.479 23.6391 109.177 28.6113C116.096 34.6491 120.661 41.2874 123.425 49.3342C125.047 54.0552 125.101 54.1627 125.258 52.9451C125.527 50.8587 123.705 44.8429 121.277 39.8041C114.15 25.0091 98.1361 13.5444 79.1159 9.61951C71.6843 8.08582 63.6095 7.66824 56.3527 8.44208Z" fill="#CDCDCD"/>
<path fill-rule="evenodd" clip-rule="evenodd" d="M56.0611 0.446758C44.1418 1.88825 33.6718 5.92583 24.1315 12.7599C20.326 15.4859 13.5728 22.2215 10.7016 26.154C4.66134 34.4274 -0.207832 47.2639 0.00683563 54.3484L0.0490465 55.7496L0.33551 54.3484C0.492813 53.5777 0.94488 51.9226 1.33958 50.6702C1.73428 49.4179 2.25273 47.7627 2.49193 46.9921C4.45786 40.6506 8.90455 32.9534 13.7809 27.4515C21.855 18.3412 31.4234 12.0939 42.8924 8.4445C45.9512 7.47136 46.6847 7.26959 49.2062 6.70841C63.1719 3.60053 79.0154 5.23048 91.8623 11.097C99.5965 14.6287 104.985 18.3332 110.901 24.1853C118.084 31.2915 122.822 39.1047 125.692 48.5754C127.376 54.1319 127.432 54.2584 127.595 52.8253C127.874 50.3697 125.982 43.2894 123.462 37.3588C116.063 19.9456 99.4385 6.45198 79.6926 1.83255C71.9776 0.0274472 63.5947 -0.464027 56.0611 0.446758Z" fill="black"/>
</svg>
