<svg width="215" height="41" viewBox="0 0 215 41" fill="none" xmlns="http://www.w3.org/2000/svg">
<path fill-rule="evenodd" clip-rule="evenodd" d="M65.1278 29.368L69.9361 29.3602C75.6004 29.3508 77.2138 28.8459 78.6911 26.6208C81.08 23.0211 80.7766 16.5456 78.0836 13.6583C76.6879 12.1616 75.0629 11.7401 69.9361 11.5435L65.1278 11.3594V29.368ZM87.8115 14.0576C87.2516 15.4859 85.6745 19.4501 84.3068 22.8675C82.9394 26.2848 81.8206 29.1456 81.8206 29.2244C81.8206 29.3036 82.6923 29.368 83.7577 29.368H85.6944L87.0513 25.4285H94.4375L96.0574 29.368H98.05C99.4976 29.368 99.9937 29.2456 99.8641 28.9204C99.7658 28.6743 98.18 24.8465 96.3401 20.4146C94.5003 15.9826 92.9126 12.1552 92.8121 11.9088C92.6989 11.6305 91.9103 11.4611 90.7299 11.4611H88.8302L87.8115 14.0576ZM98.5135 11.8254C98.5135 12.196 99.2124 14.1672 103.305 25.339L104.781 29.368H108.867L110.373 25.339C113.19 17.8038 115.206 12.1516 115.206 11.787C115.206 11.5743 114.429 11.4687 113.33 11.532L111.453 11.6402L109.3 18.0194C108.116 21.528 107.042 24.2957 106.913 24.1693C106.784 24.0432 105.691 21.1724 104.484 17.7901L102.29 11.6402L100.402 11.532C99.183 11.4622 98.5135 11.5661 98.5135 11.8254ZM117.384 29.368H121.012V25.6076C121.012 21.504 120.957 21.5875 123.257 22.2174C124.395 22.5294 124.934 23.0863 126.885 25.9636L129.177 29.3433L133.698 29.368L131.909 26.5864C130.925 25.0564 129.625 23.337 129.02 22.7654L127.921 21.7261L129.358 21.0911C132.127 19.8677 133.127 16.4163 131.432 13.9316C130.133 12.0273 129.143 11.7484 122.953 11.5431L117.384 11.3583V29.368ZM143.058 11.6574C142.908 11.8121 142.786 15.8601 142.786 20.6535V29.368L148.683 29.3666C153.888 29.3655 154.716 29.2835 155.739 28.6675C158.954 26.7329 159.179 22.38 156.156 20.6173C155.037 19.9651 155.031 19.949 155.756 19.3796C157.344 18.1325 157.757 15.8777 156.751 13.9563C155.801 12.1434 154.478 11.7527 148.616 11.5546C145.709 11.4565 143.208 11.5027 143.058 11.6574ZM166.258 12.8041C165.086 15.4794 159.841 28.7957 159.841 29.0969C159.841 29.2667 160.697 29.3569 161.744 29.2971L163.646 29.189L165.013 25.4285H172.451L173.818 29.189L177.938 29.4024L174.422 20.8794C172.487 16.1918 170.773 12.1552 170.613 11.9088C170.447 11.6531 169.578 11.4611 168.585 11.4611C166.923 11.4611 166.821 11.5199 166.258 12.8041ZM180.163 29.368H183.429V17.7371L190.735 29.368H194.691L194.497 11.6402H191.231L190.868 23.2865L189.061 20.3286C188.067 18.7016 186.392 16.0406 185.339 14.4158L183.425 11.4611H180.163V29.368ZM198.67 29.368H202.299V26.7547C202.299 24.1797 202.32 24.121 203.744 22.7489C204.539 21.9832 205.297 21.4625 205.428 21.5921C205.559 21.7218 206.673 23.4842 207.903 25.5084L210.139 29.189L215 29.4006L211.553 24.184C209.657 21.3149 208.105 18.8262 208.105 18.654C208.105 18.4817 209.453 16.9371 211.099 15.2216C212.746 13.5061 214.148 11.9579 214.214 11.7817C214.281 11.6055 213.355 11.4611 212.157 11.4611H209.979L202.299 19.5131V11.4611H198.67V29.368ZM74.7225 15.4476C76.0387 16.4693 76.4107 17.5749 76.4201 20.4916C76.4354 25.2853 75.3264 26.5029 70.9456 26.5029H68.7567V14.6844H71.2479C73.2409 14.6844 73.9358 14.8369 74.7225 15.4476ZM127.717 15.1707C128.55 15.772 128.614 17.7214 127.826 18.4989C127.441 18.8796 126.27 19.1174 124.137 19.2488L121.012 19.4412V14.6844H124.028C125.995 14.6844 127.277 14.8534 127.717 15.1707ZM152.971 15.055C153.835 15.5117 153.911 17.2626 153.102 18.0613C152.68 18.4781 151.786 18.6239 149.655 18.6239H146.777V14.6844H149.523C151.033 14.6844 152.584 14.8513 152.971 15.055ZM92.1081 19.271C92.6372 20.7104 93.0701 22.0402 93.0701 22.2257C93.0701 22.4116 92.0087 22.5634 90.7114 22.5634C89.414 22.5634 88.3526 22.4914 88.3526 22.403C88.3526 21.686 90.6783 16.1284 90.8826 16.358C91.0274 16.5209 91.579 17.8317 92.1081 19.271ZM170.401 20.3813C170.781 21.446 171.091 22.3729 171.091 22.4406C171.091 22.5079 170.03 22.5634 168.732 22.5634C167.435 22.5634 166.373 22.4083 166.373 22.2189C166.373 21.9195 166.802 20.7025 168.268 16.8332L168.607 15.9379L169.159 17.1913C169.463 17.8808 170.022 19.3162 170.401 20.3813ZM153.734 22.4399C154.121 22.7851 154.398 23.5243 154.398 24.2101C154.398 26.0012 153.388 26.5029 149.781 26.5029H146.777V21.8471H149.924C152.343 21.8471 153.225 21.9843 153.734 22.4399Z" fill="#1B1B1B"/>
<path fill-rule="evenodd" clip-rule="evenodd" d="M16.1383 4.47708L11.6135 8.95345L14.3224 11.6273L21.2224 4.84561L36.8178 20.2244L31.3676 25.6352L33.9162 28.0726L35.0716 27.0194C35.7074 26.4399 37.5121 24.7652 39.0815 23.298L41.9356 20.6305L31.4885 10.3154C25.7429 4.64254 20.9564 0.000717163 20.8522 0.000717163C20.7485 0.000717163 18.627 2.01524 16.1383 4.47708ZM4.70702 15.7588L0 20.4146L4.70702 25.0704C7.29585 27.6311 9.58858 29.7262 9.80159 29.7262C10.015 29.7262 10.7462 29.1592 11.4266 28.4662L12.6641 27.2063L5.61351 20.2219L12.4993 13.4549L11.3442 12.2788C10.7092 11.6323 10.015 11.103 9.80159 11.103C9.58858 11.103 7.29585 13.1981 4.70702 15.7588ZM11.6207 31.8904L20.8515 41L29.2019 32.7822L26.6646 30.2784L21.2166 35.6193L14.481 28.9995L11.6207 31.8904Z" fill="#016C9B"/>
<path d="M31.3651 8.08389L39.5333 0L48.788 9.11318L46.1001 11.8297L42.8153 8.60104C41.0088 6.8254 39.366 5.37279 39.1646 5.37279C38.9636 5.37279 37.6663 6.49913 36.2818 7.87617L33.7649 10.3792L31.3651 8.08389Z" fill="#2E9C45"/>
<path d="M47.8906 13.5749L50.7001 11.0138L60.2255 20.4146L50.6337 29.8805L49.5345 28.8409C48.9296 28.2693 48.4349 27.6504 48.4349 27.466C48.4349 27.2812 49.9072 25.6649 51.7064 23.8738L54.9778 20.6173L47.8906 13.5749Z" fill="#2E9C45"/>
<path d="M18.7515 20.3125L22.6159 16.6155C24.7413 14.5819 26.5721 12.9127 26.6846 12.9062C26.797 12.8994 27.3613 13.3804 27.9387 13.9749L28.9882 15.0565L23.5895 20.4203L31.3829 28.1181C35.6693 32.352 39.3007 35.7751 39.4524 35.7253C39.6041 35.6756 41.2015 34.1975 43.0029 32.4409L46.2779 29.247L48.8127 31.6716L39.5518 40.8313L18.7515 20.3125Z" fill="#2E9C45"/>
</svg>
