<svg width="136" height="53" viewBox="0 0 136 53" fill="none" xmlns="http://www.w3.org/2000/svg">
<path fill-rule="evenodd" clip-rule="evenodd" d="M0 26.5V53H6.90333H13.8067L13.8159 37.9264L13.8252 22.8528L21.7556 33.1159L29.6861 43.3791H31.4332H33.1802L40.2209 33.1288C44.0932 27.4912 47.2762 22.8702 47.2941 22.86C47.3131 22.8492 47.3268 29.1826 47.3268 37.9207V53H53.8795H60.4321V42.1552V31.3105H64.3637H68.2953V25.2931V19.2758H64.3637H60.4321V9.63791V0L55.1808 0.000679923L49.9294 0.00139384L40.2573 13.2413C34.9377 20.5232 30.5754 26.4815 30.5633 26.482C30.5513 26.4826 26.0336 20.5243 20.524 13.2415L10.5065 0H5.25324H0V26.5ZM76.1954 9.63726V19.2745L79.7486 19.2837L83.3018 19.2928L83.4996 19.3936C83.7191 19.5056 83.8715 19.6576 83.995 19.8877L84.0771 20.0407V25.3101V30.5795L83.9787 30.7495C83.8523 30.968 83.6454 31.1507 83.4126 31.2493L83.228 31.3275L79.7117 31.3369L76.1954 31.3464V42.1732V53H82.4342H88.673L88.6823 43.7738L88.6916 34.5475L101.76 43.7738L114.828 53H125.414C131.236 53 136 52.9936 136 52.9858C136 52.978 127.278 46.7484 116.618 39.1423L97.2365 25.3129L97.3202 25.2392C97.3663 25.1987 105.311 19.5247 114.976 12.6303C124.641 5.7359 132.573 0.0736697 132.602 0.0475266C132.649 0.00683322 131.133 0 122.042 0H111.427L100.059 8.02377L88.6916 16.0475L88.6823 8.02377L88.673 0H82.4342H76.1954V9.63726Z" fill="url(#paint0_linear_137_38)"/>
<defs>
<linearGradient id="paint0_linear_137_38" x1="5.06639e-07" y1="26.5" x2="136" y2="26.5" gradientUnits="userSpaceOnUse">
<stop stop-color="#874FFF"/>
<stop offset="0.515625" stop-color="#FF6068"/>
<stop offset="1" stop-color="#FEB14B"/>
</linearGradient>
</defs>
</svg>
