<svg width="119" height="77" viewBox="0 0 119 77" fill="none" xmlns="http://www.w3.org/2000/svg">
<path fill-rule="evenodd" clip-rule="evenodd" d="M65.1998 0.103978C58.1872 0.712408 50.4141 3.30847 43.2913 7.42173C39.2107 9.77792 33.9978 13.2405 33.6357 13.8355L33.3525 14.3004L34.4013 13.8303C34.9781 13.5715 36.6441 12.6875 38.1037 11.866C45.091 7.9324 54.0239 4.98097 61.1483 4.25226C71.6885 3.17432 80.0839 6.92971 81.5709 13.3876C81.7511 14.1708 82.0333 14.8511 82.1976 14.8993C83.0731 15.1558 83.5868 9.88228 82.9446 7.23188C81.9907 3.29505 78.3635 0.862242 72.4422 0.187649C70.5886 -0.0235739 67.1297 -0.0635902 65.1998 0.103978ZM61.0681 7.24507C60.2893 7.36694 59.5555 7.55156 59.4375 7.65524C59.3193 7.75914 60.0772 7.96514 61.1211 8.11315C66.1905 8.83208 69.1668 11.6157 69.8631 16.289C70.4989 20.555 69.1961 25.2556 65.6877 31.3542C58.1269 44.4964 42.574 57.6931 28.2728 63.1008C23.5968 64.8688 20.8085 65.462 16.5102 65.6027C13.3424 65.7066 12.7656 65.6655 11.2078 65.2237C8.11296 64.3458 6.06752 62.6549 4.90176 60.01C4.01018 57.9878 3.94034 53.777 4.74734 50.7119C5.08489 49.43 5.27939 48.3814 5.17981 48.3814C4.93306 48.3814 2.4761 53.262 1.70815 55.2774C0.0956976 59.5096 -0.464807 65.0468 0.414619 68.0576C1.32974 71.1898 3.75514 73.9768 6.53801 75.0939C12.082 77.3195 20.2102 76.5299 29.7642 72.8377C35.1204 70.7678 43.8453 65.8972 48.258 62.5137C54.7649 57.5247 59.3819 53.3891 64.1634 48.2677L66.2859 45.994L68.0062 45.8517C70.4234 45.6519 73.8968 45.6273 75.7449 45.7971L77.3129 45.9411L77.1898 46.7635C77.122 47.2157 76.8398 48.7622 76.5625 50.2003C76.2855 51.6384 75.7204 54.6055 75.307 56.7939C74.8934 58.9823 73.8503 64.3495 72.9887 68.721C71.7932 74.7862 71.4968 76.7111 71.7381 76.8459C72.124 77.0615 84.7339 77.0462 85.6188 76.8291C86.2034 76.6856 86.2861 76.4783 86.7199 74.0664C88.4759 64.3076 92.2636 46.3276 92.6315 46.0045C92.8115 45.8463 95.6018 45.7887 100.972 45.8328C110.272 45.9092 109.279 46.1268 112.161 43.3793C113.145 42.4415 115.086 40.6239 116.475 39.3404C118.87 37.1266 119 36.9563 119 36.0238V35.0412L106.003 34.8904C98.8542 34.8077 88.7734 34.7399 83.6013 34.7397C76.1821 34.7395 74.2246 34.6794 74.326 34.4552C74.3968 34.2991 74.9206 33.1479 75.4896 31.8974C77.8894 26.6262 78.7267 23.3525 78.7461 19.1649C78.759 16.4145 78.6809 15.781 78.1716 14.5039C76.6443 10.6749 73.3475 8.21024 68.7217 7.43901C66.7169 7.10479 62.6265 7.00111 61.0681 7.24507ZM91.9706 9.51372C87.4488 10.1513 84.3411 12.6957 84.3483 15.7544C84.3514 17.0723 84.8553 18.4076 85.6887 19.3066C86.4098 20.0849 87.8218 20.641 89.0778 20.6419C90.4652 20.6428 91.1067 20.4145 92.1876 19.5351C93.7256 18.2839 94.0297 16.9884 93.1022 15.6408C92.3689 14.5751 91.9993 14.41 90.0509 14.2766C89.1373 14.214 88.3468 14.0478 88.2943 13.9073C88.1301 13.4683 89.5222 12.2351 90.9049 11.5948C92.1356 11.025 92.4561 10.9814 95.4355 10.9789C98.1804 10.9764 98.6822 10.92 98.9217 10.5862C99.3531 9.98482 98.8837 9.75268 96.742 9.50827C94.5414 9.25725 93.7827 9.25816 91.9706 9.51372ZM44.0577 17.2298L22.01 17.346L20.6119 18.5965C16.5327 22.245 10.6237 27.7782 10.6237 27.9494C10.6237 28.0574 15.5705 28.1459 21.6165 28.1459C27.6626 28.1459 32.6094 28.2075 32.6094 28.2825C32.6094 28.7036 28.0829 51.8328 27.5524 54.1224C27.204 55.6262 26.919 57.4153 26.919 58.0983V59.3402L29.1822 59.2606C31.3655 59.184 31.5186 59.1421 33.5147 58.0769C36.7372 56.3571 42.394 52.7432 42.7398 52.1832C42.9113 51.9055 43.1958 50.8597 43.372 49.8593C43.5481 48.8588 44.1148 45.994 44.6314 43.493C47.0746 31.6612 47.6522 28.9128 47.7738 28.5438C47.8951 28.1754 48.5272 28.1459 56.3078 28.1459H64.711L65.3664 26.8428C66.2965 24.9946 67.8035 20.3172 67.9757 18.7443C68.1363 17.2798 67.9118 16.9715 66.7518 17.0627C66.3961 17.0907 56.1837 17.1659 44.0577 17.2298Z" fill="url(#paint0_linear_137_44)"/>
<defs>
<linearGradient id="paint0_linear_137_44" x1="4.43309e-07" y1="38.5" x2="119" y2="38.5" gradientUnits="userSpaceOnUse">
<stop stop-color="#874FFF"/>
<stop offset="0.515625" stop-color="#FF6068"/>
<stop offset="1" stop-color="#FEB14B"/>
</linearGradient>
</defs>
</svg>
